<svg xmlns="http://www.w3.org/2000/svg" viewBox="0 0 240 80" fill="none">
  <defs>
    <linearGradient id="throneMark" x1="16" y1="10" x2="64" y2="58" gradientUnits="userSpaceOnUse">
      <stop stop-color="#7C3AED" />
      <stop offset="0.5" stop-color="#2563EB" />
      <stop offset="1" stop-color="#EC4899" />
    </linearGradient>
    <linearGradient id="throneWord" x1="80" y1="18" x2="222" y2="64" gradientUnits="userSpaceOnUse">
      <stop stop-color="#3B82F6" />
      <stop offset="0.6" stop-color="#8B5CF6" />
      <stop offset="1" stop-color="#F59E0B" />
    </linearGradient>
  </defs>

  <path
    d="M16 24c0-3.314 2.686-6 6-6h36c3.314 0 6 2.686 6 6v26c0 3.314-2.686 6-6 6H22c-3.314 0-6-2.686-6-6V24Z"
    fill="url(#throneMark)"
  />
  <path d="M22 24 30 34l10-14 10 14 8-10v22H22V24Z" fill="#FFF" fill-opacity=".94" />
  <rect x="30" y="48" width="20" height="4.8" rx="2.4" fill="#FFF" fill-opacity=".96" />

  <path
    d="M82.39 57V22.09h12.88c3.07 0 5.65.51 7.74 1.52 2.1 1.02 3.69 2.45 4.78 4.3 1.09 1.84 1.64 3.98 1.64 6.4 0 2.43-.55 4.56-1.64 6.4-1.09 1.84-2.69 3.28-4.81 4.31-2.1 1.03-4.69 1.54-7.76 1.54h-7.52V57h-5.31Zm5.31-14.88h7.3c3.08 0 5.31-.66 6.69-1.99 1.38-1.33 2.06-3.27 2.06-5.82 0-2.53-.68-4.46-2.06-5.79-1.38-1.33-3.61-1.99-6.69-1.99h-7.3v15.59ZM113.89 57V22.09h5.31V57h-5.31ZM123.45 57V22.09h5.31l16.64 25.7v-25.7h5.31V57h-5.31l-16.64-25.66V57h-5.31ZM166.14 57.58c-2.46 0-4.67-.43-6.64-1.29-1.95-.88-3.51-2.11-4.68-3.7-1.16-1.6-1.79-3.48-1.89-5.64h5.62c.15 1.55.85 2.88 2.09 3.98 1.24 1.1 2.77 1.64 4.59 1.64 1.82 0 3.26-.45 4.34-1.35 1.08-.91 1.62-2.09 1.62-3.53 0-1.12-.34-2.03-1.03-2.73-.68-.7-1.53-1.25-2.55-1.65a24.13 24.13 0 0 0-3.6-1.1 47.97 47.97 0 0 1-4.82-1.56c-1.5-.61-2.79-1.53-3.86-2.74-1.05-1.21-1.58-2.84-1.58-4.88 0-1.95.48-3.67 1.44-5.17.97-1.51 2.34-2.69 4.12-3.52 1.78-.84 3.84-1.26 6.18-1.26 3.35 0 6.09.84 8.22 2.5 2.13 1.67 3.31 3.93 3.53 6.79h-5.79c-.1-1.3-.79-2.42-2.06-3.35-1.27-.95-2.73-1.42-4.4-1.42-1.51 0-2.75.39-3.72 1.17-.97.77-1.45 1.91-1.45 3.4 0 1.01.32 1.84.96 2.49.65.63 1.45 1.14 2.42 1.53.97.38 2.14.76 3.49 1.14 1.91.54 3.55 1.06 4.93 1.56 1.4.5 2.6 1.34 3.62 2.54 1.03 1.18 1.56 2.79 1.6 4.83 0 1.73-.46 3.37-1.37 4.92-.9 1.53-2.24 2.77-4.01 3.72-1.76.94-3.86 1.41-6.31 1.41ZM182.31 57V22.09h5.31V57h-5.31ZM193.09 57V22.09h22.35v4.34H198.4v10.76h15.24v4.26H198.4v11.2h17.04V57h-22.35Z"
    fill="url(#throneWord)"
  />
</svg>
